<?xml version="1.0" encoding="UTF-8" standalone="no"?>
<!-- Created with Inkscape (http://www.inkscape.org/) -->
<svg
   xmlns:svg="http://www.w3.org/2000/svg"
   xmlns="http://www.w3.org/2000/svg"
   version="1.0"
   width="250"
   height="249.26953"
   id="svg2495">
  <defs
     id="defs2497" />
  <g
     transform="translate(5.0937862e-8,-412.80774)"
     id="layer1">
    <path
       d="M 46.582149,635.53697 C 28.696099,621.74979 12.673076,599.39235 4.8478983,573.30827 C -2.9773279,547.22418 -2.2320716,509.21647 13.790973,479.40623 C 29.813946,449.59578 58.506248,423.88446 98.004704,415.68667 C 137.50316,407.48883 166.19546,417.92241 192.65236,432.82754 C 219.10877,447.73266 241.46671,484.62266 246.3108,506.23545 C 251.15491,527.84776 251.90004,550.95082 244.44773,576.6621 C 236.99493,602.37338 215.38261,627.33952 200.10468,638.518 C 184.82723,649.69695 168.43135,655.28669 168.43135,655.28669 L 168.49852,655.41908 C 168.49852,655.41908 165.16999,638.69808 164.45649,634.81471 C 163.74348,630.93135 162.3963,624.67096 162.55496,622.05593 C 162.71314,619.44041 166.0441,615.94155 167.23262,614.75254 C 168.42162,613.56402 173.4935,606.90696 174.60269,604.84677 C 175.71187,602.78561 174.91952,598.50656 174.36518,595.0987 C 173.81034,591.69133 172.62182,587.33247 171.67032,581.23025 C 170.71932,575.12852 170.56066,570.83779 170.8775,570.12478 C 171.19482,569.41127 171.19482,564.8149 171.19482,564.18074 C 171.19482,563.54705 170.8775,562.91337 168.8173,562.51672 C 166.75711,562.12053 165.01376,562.75422 163.42858,564.65672 C 161.84341,566.55874 162.00012,569.66193 162.07946,573.38662 C 162.15879,577.11084 162.6343,580.12252 163.03046,582.81688 C 163.42712,585.51125 164.06081,586.54158 163.5853,587.57192 C 163.11028,588.60226 160.5741,589.6326 157.24557,591.53413 C 153.91704,593.43614 150.90536,595.73433 149.4,598.19118 C 147.89416,600.64804 148.13167,604.77815 148.36918,609.29519 C 148.60766,613.81273 149.95435,620.38996 149.95435,620.38996 L 148.29033,620.70729 C 148.29033,620.70729 146.46814,612.85102 145.91379,606.66946 C 145.35895,600.48839 146.30996,598.19021 147.57781,596.36753 C 148.84614,594.54484 150.51016,592.88033 154.31371,590.74033 C 158.11822,588.6008 160.57459,587.57094 161.12942,586.54061 C 161.68426,585.51027 160.01343,577.41794 159.85476,572.50473 C 159.69659,567.59151 160.8851,565.37217 160.8851,565.37217 C 160.8851,565.37217 158.98308,558.55694 158.11141,555.38708 C 157.23974,552.21721 155.7339,547.54198 154.70355,544.92647 C 153.6737,542.31145 152.4847,542.31145 150.82068,542.31145 C 149.15666,542.31145 147.41331,543.10331 147.25415,545.63949 C 147.09598,548.17518 148.99751,554.9909 150.34517,560.69695 C 151.69235,566.403 153.83188,575.59526 153.83188,575.59526 L 148.76,576.94293 C 148.76,576.94293 148.60182,576.86359 148.76,576.22943 C 148.91866,575.59526 150.82068,574.9611 151.21684,574.32741 C 151.61302,573.69324 150.4245,569.17669 149.23599,564.50049 C 148.04698,559.82527 147.17482,556.49675 145.7488,551.74171 C 144.32229,546.98667 143.68811,544.92647 142.73711,543.42063 C 141.78611,541.91479 140.04275,542.07345 138.45758,542.54896 C 136.87289,543.02446 135.76321,543.65814 136.39738,547.77949 C 137.03155,551.90037 139.40858,559.58728 139.40858,559.58728 C 139.40858,559.58728 140.83509,559.90412 142.02409,561.40996 C 143.2131,562.91532 144.48046,566.48184 144.63913,569.01802 C 144.79779,571.5542 144.08283,572.67362 144.08283,572.67362 C 144.08283,572.67362 146.06369,575.84348 145.98436,578.77583 C 145.90552,581.70819 144.47852,584.56072 144.47852,584.56072 C 144.47852,584.56072 146.14302,588.84025 145.19201,592.32745 C 144.24101,595.81415 142.89383,597.55751 142.89383,597.55751 C 142.89383,597.55751 143.92417,598.11234 143.21115,604.53139 C 142.49766,610.95045 136.94979,612.54634 134.25493,612.943 C 134.26321,616.50854 135.04728,634.8152 135.04728,634.8152 L 130.92689,634.65653 C 130.92689,634.65653 133.70059,662.2348 132.67025,662.0766 C 131.63942,661.91794 120.61718,661.05309 120.61718,661.05309 C 120.59527,656.13355 120.73593,650.38273 120.63859,640.84295 C 120.58992,633.34731 121.36863,634.51588 114.31103,634.51588 C 114.27502,626.40895 114.31103,621.4714 114.31103,615.04651 L 107.49678,615.04651 C 102.04527,615.04651 95.368262,611.6883 93.908168,606.04259 C 92.877829,612.85783 92.402326,621.02024 92.402326,621.02024 C 91.530649,629.97548 91.530649,629.89615 90.50031,629.97548 C 90.024806,624.6656 90.75096,619.79181 90.896969,618.08789 C 90.896969,618.08789 91.836295,613.08804 92.322993,603.10975 C 92.858848,592.15856 93.430718,595.72362 92.89535,594.11752 L 95.176017,593.60016 C 95.176017,595.59611 95.328839,596.405 95.328839,598.4978 C 95.328839,607.69688 98.626217,612.73031 107.63062,613.16834 C 112.44941,613.36302 112.42556,612.91331 114.27502,613.25351 L 115.71515,568.39164 L 110.90415,568.32059 C 110.90415,571.04658 111.53978,572.33682 111.43464,577.98251 C 111.26333,587.17137 107.63305,590.46339 100.64407,590.34123 L 93.868746,590.22345 L 93.828837,588.67721 L 99.534883,588.4397 C 99.780666,588.429 109.89765,588.35016 109.44064,578.92962 L 108.96466,569.10611 C 108.83568,566.44826 104.6856,569.18544 103.73411,565.46075 L 116.09721,566.33242 C 118.67135,566.62444 121.11263,565.97226 123.22441,564.97211 C 125.8448,562.04997 130.283,560.14795 130.283,560.14795 C 130.521,556.58191 127.11216,556.58776 123.55878,556.63934 L 100.32723,556.97809 C 90.022372,557.12847 87.439954,569.30079 84.133815,609.20565 C 82.892735,624.1901 82.819731,628.82103 82.673722,631.10851 C 82.673722,631.15718 81.785498,646.62978 81.46817,655.42636 C 81.46817,655.42636 64.468297,649.32465 46.582149,635.53697 z"
       id="path11"
       style="fill:#e76600;fill-opacity:1;fill-rule:evenodd;stroke:none" />
    <path
       d="M 167.48083,525.91606 L 80.72693,525.97738 C 78.293441,530.96555 118.2051,537.04927 118.2051,546.41967 L 118.2051,555.18072 L 129.39964,555.18072 C 129.39673,537.53597 126.96324,543.74137 166.99413,527.92368 C 167.7013,527.64432 167.48083,525.91606 167.48083,525.91606 z"
       id="path13"
       style="fill:#ffffff;fill-rule:nonzero;stroke:#ffffff;stroke-width:0.17521125;stroke-linecap:butt;stroke-linejoin:miter;stroke-dasharray:none" />
    <path
       d="M 133.16911,632.33012 C 133.16911,632.33012 131.80344,606.8398 131.80344,603.88068 C 131.80344,600.92204 130.85973,599.47119 130.85973,599.47119 C 125.65206,594.26353 124.41829,595.1756 123.55878,593.14363 C 123.55878,593.14363 122.67494,590.65807 123.46728,588.99405 C 122.01107,586.08068 121.88308,583.60533 122.75475,580.67346 C 121.32824,577.50311 121.61199,575.13484 121.61199,575.13484 C 121.61199,572.50667 123.55878,571.38727 123.55878,570.75407 C 123.55878,570.2187 122.3581,569.26186 122.43743,567.91419 C 120.2064,568.23201 119.18823,568.54836 117.68288,568.31036 C 117.68288,568.31036 116.23641,614.31645 116.25831,616.5066 L 116.41843,632.67519 L 133.16911,632.33012 z"
       id="path15"
       style="fill:#ffffff;fill-rule:nonzero;stroke:#ffffff;stroke-width:0.17521125;stroke-linecap:butt;stroke-linejoin:miter;stroke-dasharray:none" />
    <path
       d="M 136.63635,561.49707 C 141.6985,561.49707 141.32179,565.98395 142.53854,567.8334 L 142.3424,570.84801 C 137.13425,568.99904 140.28172,567.75797 135.23759,567.8334 C 132.46389,567.87526 127.37351,569.12558 125.62092,570.29366 C 124.14281,568.89392 124.66991,567.66452 124.66991,566.88629 C 124.66991,564.20896 130.99017,561.49707 136.63635,561.49707 z"
       id="path17"
       style="fill:#ffffff;fill-rule:nonzero;stroke:#ffffff;stroke-width:0.17521125;stroke-linecap:butt;stroke-linejoin:miter;stroke-dasharray:none" />
    <path
       d="M 135.84401,570.13499 C 139.15404,570.13499 143.99863,574.50165 143.99863,578.54173 C 143.99863,579.56379 142.53854,581.94861 142.53854,581.94861 C 141.37046,580.1965 138.06092,577.56833 133.77749,577.56833 C 133.72882,577.56833 125.94117,578.73592 125.01644,579.02842 C 123.87756,577.18822 123.7189,575.89409 123.7189,574.96936 C 123.7189,571.2213 133.75121,570.13499 135.84401,570.13499 z"
       id="path19"
       style="fill:#ffffff;fill-rule:nonzero;stroke:#ffffff;stroke-width:0.17521125;stroke-linecap:butt;stroke-linejoin:miter;stroke-dasharray:none" />
    <path
       d="M 130.61395,580.04125 L 135.68583,580.19942 C 139.04161,580.30455 143.53092,584.62691 143.53092,588.52098 C 143.53092,591.00265 142.87923,592.80294 141.56514,594.11703 C 140.78642,591.87773 136.35748,585.84268 128.42333,585.84268 C 127.54727,585.84268 126.25265,587.39233 124.98674,586.85647 C 123.7189,585.74729 124.27423,583.21111 124.27423,583.21111 C 124.27423,579.75506 128.5484,579.97652 130.61395,580.04125 z"
       id="path21"
       style="fill:#ffffff;fill-rule:nonzero;stroke:#ffffff;stroke-width:0.17521125;stroke-linecap:butt;stroke-linejoin:miter;stroke-dasharray:none" />
    <path
       d="M 128.31528,587.80748 C 137.20725,587.28428 141.56514,598.25396 141.56514,601.41798 C 141.56514,607.11236 138.54226,610.07732 134.25883,610.71051 C 134.01548,608.32521 134.12451,604.46715 133.78382,600.96243 C 133.39445,596.82551 125.1459,594.03235 125.1459,591.45285 C 125.1459,590.62547 125.62092,587.96566 128.31528,587.80748 z"
       id="path23"
       style="fill:#ffffff;fill-rule:nonzero;stroke:#ffffff;stroke-width:0.17521125;stroke-linecap:butt;stroke-linejoin:miter;stroke-dasharray:none" />
    <path
       d="M 132.35585,548.13186 C 133.13115,547.95909 134.50705,549.0342 134.7504,550.40913 C 134.78398,550.59942 136.81886,557.8556 137.14495,558.99496 C 137.20432,559.20278 136.25721,559.35707 134.7504,559.46219 C 132.97492,559.58484 132.64202,559.69581 132.47265,559.69581 C 132.12807,559.69581 131.94702,558.87232 131.94702,557.94369 C 131.94702,557.45895 131.28122,556.87442 131.30458,555.72435 C 131.3221,554.81326 131.29873,552.02155 131.30458,551.98603 L 131.30458,548.36499 C 131.36298,548.21898 132.35585,548.13186 132.35585,548.13186 z"
       id="path25"
       style="fill:#ffffff;fill-rule:nonzero;stroke:#ffffff;stroke-width:0.17521125;stroke-linecap:butt;stroke-linejoin:miter;stroke-dasharray:none" />
    <path
       d="M 123.49112,525.30379 C 127.18371,518.67302 153.77445,516.96373 149.83803,488.50116 C 148.42321,478.27271 145.09273,468.83613 135.60212,456.50076 C 135.45563,456.79308 137.67351,463.68102 137.67351,469.52188 C 137.67351,471.71203 137.25251,479.27531 135.11543,486.06766 C 131.70853,496.89669 122.67201,514.70838 123.35485,524.14156 C 123.35485,524.14156 122.76254,519.85424 122.70462,517.09466 C 122.59366,511.86849 124.17494,503.7713 124.17494,503.7713 C 125.15174,494.9207 131.96843,482.2792 131.96843,468.69936 C 131.96843,459.79216 127.51077,445.91508 124.65141,443.29908 L 123.55829,450.05299 C 122.06169,459.29879 109.34574,473.75615 106.52289,488.01737 C 106.52289,488.01737 105.42977,485.88516 106.55793,482.75179 C 108.55924,477.19273 115.05081,464.2451 115.83391,459.93759 C 116.08456,458.55877 116.08456,454.79829 116.08456,454.79829 C 112.95071,459.18568 95.748374,476.56342 94.841168,488.50407 L 94.649409,491.02468 C 93.467707,506.58344 118.08878,517.71082 123.49112,525.30379 z"
       id="path27"
       style="fill:#ffffff;fill-rule:nonzero;stroke:#ffffff;stroke-width:0.17521125;stroke-linecap:butt;stroke-linejoin:miter;stroke-dasharray:none" />
    <path
       d="M 92.582891,424.78276 C 92.582891,424.78276 92.407679,425.4182 92.407679,425.83407 C 92.407679,427.42061 94.100901,431.61599 94.100901,431.61599 C 94.270758,432.01334 95.8535,437.15885 95.8535,437.16455 C 95.8535,437.16455 96.215603,438.57806 97.430401,439.96832 L 97.430401,440.14318 L 93.98458,441.1361 C 93.98458,440.44689 93.972899,440.02059 93.98458,439.32568 C 93.99042,438.92264 93.400542,437.17025 93.400542,436.98963 C 93.400542,436.98963 91.507774,431.17826 91.47322,431.09031 C 91.040545,430.07414 90.2409,426.51136 89.136583,425.77562 C 89.341482,425.52468 92.582891,424.78276 92.582891,424.78276 z"
       id="path29"
       style="fill:#ffffff;fill-rule:nonzero;stroke:#ffffff;stroke-width:0.17521125;stroke-linecap:butt;stroke-linejoin:miter;stroke-dasharray:none" />
    <path
       d="M 110.10401,421.10352 C 110.22666,421.10352 110.15658,423.49803 109.75407,423.49803 C 109.60174,423.49803 108.98851,423.20571 108.76121,423.20571 L 107.18382,423.20571 C 107.17214,423.20571 105.37331,423.36355 105.37331,424.25707 C 105.37331,424.60166 105.48769,425.89968 105.78214,426.88544 L 107.47585,434.77004 C 107.73866,436.48536 108.11829,437.33995 108.81962,437.69023 C 108.67945,437.90078 105.02289,438.47303 105.02289,438.27437 C 105.02289,438.27437 105.3154,437.03621 105.3154,436.98963 C 105.3154,435.58186 103.38759,427.17157 103.38759,426.76854 C 103.38759,426.76854 103.10238,423.9928 102.27791,424.08216 C 98.9781,424.43959 97.839228,425.42535 97.839228,425.42535 C 97.839228,423.56791 98.183809,422.78559 100.05857,422.91388 L 105.19809,422.03792 C 105.85806,421.87445 107.94308,421.57074 107.94308,421.57074 C 107.94308,421.57074 109.84704,421.10352 110.10401,421.10352 z"
       id="path31"
       style="fill:#ffffff;fill-rule:nonzero;stroke:#ffffff;stroke-width:0.17521125;stroke-linecap:butt;stroke-linejoin:miter;stroke-dasharray:none" />
    <path
       d="M 136.73613,421.21998 L 137.43697,421.21998 C 137.49537,421.24943 144.91605,422.5679 146.37031,422.61447 C 146.39952,422.61447 148.65098,422.7561 148.65098,423.0893 C 148.65098,423.53321 147.59922,425.07507 147.59922,425.07507 C 147.37729,424.73618 146.01112,423.78984 143.97819,423.78984 C 143.90811,423.78984 143.51096,423.78984 143.51096,423.78984 C 143.1839,423.78984 142.75171,427.29417 142.75171,427.29417 C 142.72981,427.3973 142.31369,430.3389 142.28448,430.56512 L 141.52523,436.46399 C 141.52523,436.90173 141.80557,437.69023 142.10927,438.041 L 142.10927,438.21591 C 142.03967,438.21591 141.92822,438.21591 141.75885,438.21591 C 141.73597,438.21591 138.31303,438.0115 138.31303,437.57376 C 138.31303,437.57376 139.43924,435.10893 139.53951,434.24436 L 140.29876,427.70294 L 140.70758,424.66629 L 140.70758,423.7314 C 140.70758,423.25847 138.66345,422.91388 138.60504,422.91388 C 137.76403,422.90201 136.30978,423.01322 135.62645,423.20571 C 135.62645,423.20571 136.32681,421.21998 136.73613,421.21998 z"
       id="path33"
       style="fill:#ffffff;fill-rule:nonzero;stroke:#ffffff;stroke-width:0.17521125;stroke-linecap:butt;stroke-linejoin:miter;stroke-dasharray:none" />
    <path
       d="M 153.32279,424.49094 C 154.14629,424.49094 154.92305,424.68912 157.35264,425.42535 C 160.31956,426.32457 161.09049,426.05606 161.09049,426.82698 C 161.09049,427.36406 160.64078,428.43917 160.62325,428.5209 L 160.44853,428.5209 C 159.58367,427.21814 155.89255,426.59313 155.89255,426.59313 C 155.21507,426.59313 155.36692,427.04323 154.89969,428.57939 L 154.37406,430.97389 C 154.37406,432.2762 158.1703,431.67445 158.1703,432.95967 C 158.1703,433.00625 157.8666,434.17452 157.58626,434.36127 C 156.52331,433.43255 155.44333,433.13455 154.49086,433.13455 C 154.40325,433.13455 154.34486,433.13455 154.25725,433.13455 C 153.74913,433.13455 153.56809,433.96393 153.14758,435.646 C 153.14758,435.646 152.44673,438.44972 152.44673,438.68309 C 152.44673,439.17977 153.26438,439.3433 154.66608,439.85137 C 155.3202,440.08474 157.40521,440.4355 157.41154,440.4355 C 157.797,440.4355 158.01894,440.4702 158.4044,440.4355 C 158.4044,440.4355 159.07556,440.20164 159.6888,440.20164 C 159.77641,440.20164 159.78809,440.21356 159.8645,440.20164 C 159.75937,440.44689 158.69593,442.17603 158.1703,442.30437 L 149.00092,439.85137 L 149.00092,439.676 C 150.31451,438.80004 150.77055,434.6764 151.45387,432.78427 L 153.26438,425.30844 C 153.26438,425.22668 153.09501,424.67199 153.03077,424.49094 C 153.36367,424.32741 153.26438,424.49094 153.32279,424.49094 z"
       id="path35"
       style="fill:#ffffff;fill-rule:nonzero;stroke:#ffffff;stroke-width:0.17521125;stroke-linecap:butt;stroke-linejoin:miter;stroke-dasharray:none" />
    <path
       d="M 83.998026,427.17726 C 84.277877,427.2766 84.581577,427.71482 84.581577,428.69581 L 84.581577,429.63022 C 84.581577,429.63022 83.781446,429.45535 83.705521,429.45535 C 83.325897,429.45535 80.2597,430.23197 80.2597,430.97389 C 80.2597,431.57511 82.187023,435.63364 82.712657,436.87272 C 82.712657,436.87272 84.803025,441.2915 85.224018,442.12896 C 85.234726,442.1499 85.802702,443.20359 86.742515,443.70596 C 86.322009,444.19076 84.94368,444.69887 84.815192,444.69887 C 84.587904,444.69887 83.332223,445.23595 83.179888,445.28302 C 83.179888,444.79252 83.179888,444.69887 83.179888,444.2901 C 83.179888,442.7131 81.684751,440.31859 80.610122,437.80713 C 80.224658,436.90173 79.523812,435.51196 79.208433,434.77004 C 78.694479,433.56089 78.291494,431.90831 77.514724,431.90831 C 77.047007,431.90831 76.210857,432.31942 75.879415,432.43399 C 75.069063,432.71346 73.689275,433.96967 73.251247,434.18591 C 73.262927,434.07519 73.075549,432.72012 73.075549,432.60891 L 73.075549,432.02478 C 73.689275,431.61599 75.63412,430.88595 75.996223,430.68159 L 80.493802,428.81276 L 83.998026,427.17726 z"
       id="path37"
       style="fill:#ffffff;fill-rule:nonzero;stroke:#ffffff;stroke-width:0.17521125;stroke-linecap:butt;stroke-linejoin:miter;stroke-dasharray:none" />
    <path
       d="M 68.228524,435.17877 C 69.046177,436.40506 69.338195,437.28145 69.338195,437.28145 C 69.320675,437.28145 68.376967,436.91122 66.826348,437.28145 C 66.627775,437.32851 63.90616,438.74729 63.90616,439.96783 L 63.90616,440.55196 C 63.90616,441.14749 64.706779,442.53769 66.067586,442.53769 L 66.710027,442.53769 L 68.462139,442.7131 C 68.596468,442.7131 70.780768,442.7188 70.915097,442.7131 C 73.227885,442.59046 73.60897,443.17746 74.360918,443.70596 C 74.308841,443.85188 75.37325,444.6984 75.528992,446.74262 C 75.627792,448.03538 74.431975,451.1248 70.688783,452.48556 C 70.65374,452.49743 68.795041,453.28403 68.170121,453.28403 C 67.194778,453.28403 66.961163,452.26216 66.476412,451.94089 C 66.517295,451.83012 66.382966,451.67233 66.009182,451.2398 C 66.663304,450.91284 66.692506,451.33345 67.644487,451.2398 C 69.162984,451.08251 69.822947,450.77263 70.097444,450.77263 C 71.014383,450.77263 73.368054,449.09054 73.368054,447.56061 C 73.368054,447.07007 73.292129,446.84293 73.076036,446.45079 C 72.627787,445.63616 71.189594,445.22456 71.031905,445.22456 L 65.717163,445.22456 C 63.912488,445.22456 62.609598,443.91038 62.387663,443.76447 C 61.867383,443.11662 61.570497,442.50348 61.570497,441.54483 L 61.570497,440.78577 C 61.570497,437.76056 66.026703,435.90882 68.228524,435.17877 z"
       id="path39"
       style="fill:#ffffff;fill-rule:nonzero;stroke:#ffffff;stroke-width:0.17521125;stroke-linecap:butt;stroke-linejoin:miter;stroke-dasharray:none" />
    <path
       d="M 53.861398,444.1143 C 54.434242,445.70323 54.918992,446.33963 56.782072,448.20276 C 57.499951,448.92142 58.819876,450.38151 59.118222,450.77268 C 59.72562,451.56687 60.040514,451.5146 59.993791,451.94094 C 60.425979,452.22707 62.272024,454.33544 62.272024,454.33544 C 62.995743,455.59118 64.315668,456.50796 64.315668,456.90535 C 64.315668,457.05696 63.428418,457.53032 63.031273,457.54746 C 62.084645,457.59452 62.00288,457.4895 61.804307,457.54746 L 47.787552,455.0945 C 47.466285,455.17052 47.530431,455.20571 47.320374,455.0945 L 47.320374,455.38676 L 49.597925,458.19005 C 50.82489,459.25898 50.958731,459.6677 51.116422,459.82554 C 51.116422,459.82554 52.01584,460.54985 51.992478,460.8184 C 52.278657,460.91775 53.913961,463.18371 54.153417,463.38813 C 54.153417,463.38813 55.427105,464.07729 55.555107,464.20578 C 54.579764,465.05847 54.889304,464.80734 53.56938,465.95838 C 53.183914,465.64251 53.189755,465.02927 52.985341,464.6146 C 52.979502,464.59708 49.83738,460.95863 49.53952,460.75996 C 49.574563,460.66631 48.05042,458.93766 48.020926,458.89108 C 48.020926,458.89108 46.403045,457.09784 46.385474,457.08023 C 45.877361,456.57217 45.345984,455.98234 43.816051,454.45235 C 43.652521,454.28887 42.816957,454.15435 42.58928,453.92667 C 42.58928,453.92667 44.207208,452.23277 44.633508,452.23277 L 45.217643,452.23277 C 45.603109,452.23277 58.201283,454.62727 59.409754,454.62727 C 59.702259,454.62727 59.760663,454.59827 59.760663,454.3939 C 59.760663,454.34114 58.089829,452.02266 56.022336,449.95516 C 55.998975,449.93185 52.938618,446.57344 52.576515,446.33394 C 52.465548,446.26404 52.022166,446.28731 51.583652,446.04206 C 51.671258,446.00123 53.178075,444.28397 53.861398,444.1143 z"
       id="path41"
       style="fill:#ffffff;fill-rule:evenodd;stroke:#ffffff;stroke-width:0.17521125;stroke-linecap:butt;stroke-linejoin:miter;stroke-dasharray:none" />
    <path
       d="M 40.428341,466.19141 C 40.557169,466.2615 40.486793,466.24982 40.603748,466.19141 L 40.603748,466.36662 L 40.428341,466.36662 L 40.428341,466.19141 z"
       id="path43"
       style="fill:#ffffff;fill-rule:evenodd;stroke:#ffffff;stroke-width:0.17521125;stroke-linecap:butt;stroke-linejoin:miter;stroke-dasharray:none" />
    <path
       d="M 49.890235,458.77364 L 49.831831,458.77364 L 49.890235,458.77364 z"
       id="path45"
       style="fill:#ffffff;fill-rule:evenodd;stroke:#ffffff;stroke-width:0.17521125;stroke-linecap:butt;stroke-linejoin:miter;stroke-dasharray:none" />
    <path
       d="M 37.391346,459.41608 C 37.636591,459.41608 37.671731,460.43226 38.559129,461.11018 C 38.594268,461.13354 41.350973,463.75003 41.537767,463.85467 C 41.870961,464.04789 46.899524,468.83116 47.495534,469.28671 C 47.577299,469.34511 49.300358,470.27957 49.305712,470.27957 C 48.757202,471.1089 46.969853,472.8435 46.969853,472.84933 L 46.794494,472.84933 C 46.700853,472.70917 46.619088,472.56316 46.619088,472.38211 C 46.619088,472.18353 46.379535,471.79223 45.509273,470.92201 C 45.123855,470.53655 40.428439,465.72359 40.194579,465.9577 C 40.194579,465.9577 37.175057,462.71628 34.996792,461.92735 C 35.130829,461.70006 35.096126,461.70006 35.288617,461.81054 C 35.341375,461.50685 37.105215,459.41608 37.391346,459.41608 z"
       id="path47"
       style="fill:#ffffff;fill-rule:nonzero;stroke:#ffffff;stroke-width:0.17521125;stroke-linecap:butt;stroke-linejoin:miter;stroke-dasharray:none" />
    <path
       d="M 125.58101,437.28145 C 126.60161,436.98393 128.27342,435.82136 128.5596,435.82136 C 129.31885,435.82136 128.07485,437.05951 130.07809,437.10609 C 130.23044,437.10609 131.65549,437.02433 131.94702,437.10609 C 131.95919,436.85515 131.94702,436.89603 131.94702,436.81427 C 131.94702,436.39362 131.69685,436.22109 131.36298,435.35417 C 130.79062,433.86605 130.96048,427.58029 130.95415,427.46957 C 130.95415,427.42869 130.95415,426.34219 130.95415,422.38826 C 130.95415,422.11969 131.18825,420.91054 131.18825,420.86966 C 131.18825,420.74706 130.87239,420.63629 130.66263,420.63629 C 129.82113,420.64203 129.3427,420.61871 128.5012,420.63629 C 128.44279,420.63629 127.74244,420.71187 127.74244,420.86966 C 127.74244,420.98092 128.24471,421.98517 128.26807,422.15489 C 128.49001,423.65581 128.40824,423.9068 128.5596,424.37398 L 128.5596,432.49244 C 128.5596,434.56568 126.87222,435.60512 124.88065,435.70446 C 124.40709,435.7282 124.33117,435.75151 123.8873,435.70446 C 121.01383,434.88694 119.84527,433.0699 119.84527,430.52331 C 119.84527,429.08079 119.91584,423.03084 119.91584,423.03084 C 119.91584,421.67578 120.31883,420.89915 120.32467,420.81121 C 120.32467,420.81121 116.52842,420.89915 116.52842,421.10352 C 116.52842,421.11491 117.18692,422.17147 117.22927,423.49803 C 117.22927,423.49803 117.36944,428.57321 117.4624,430.85695 C 117.55049,432.91879 117.4624,432.49244 117.4624,432.60935 C 117.4624,433.38597 118.67184,437.89557 122.95284,437.51531 C 122.95284,437.51531 124.34723,437.64126 125.58101,437.28145 z"
       id="path49"
       style="fill:#ffffff;fill-rule:nonzero;stroke:#ffffff;stroke-width:0.17521125;stroke-linecap:butt;stroke-linejoin:miter;stroke-dasharray:none" />
    <path
       d="M 176.22114,433.48029 C 171.93429,433.68466 168.67732,437.75987 168.67732,441.77849 C 168.67732,442.14015 168.74156,443.32507 168.82333,443.72528 C 169.15428,445.34842 170.74043,447.9141 171.78002,448.43408 C 171.96691,448.52767 173.87038,450.22937 176.74433,450.70939 C 177.20086,450.78546 178.56507,450.70491 178.80063,450.66073 C 181.72082,450.11319 183.5216,448.26374 183.5216,448.26373 C 184.47991,447.30601 184.63808,446.90518 184.86002,446.57247 C 185.64798,445.38662 186.08893,443.17774 186.08893,443.17774 C 186.15951,440.92389 185.44406,439.32066 185.44406,439.32066 C 185.00117,438.18379 183.55518,436.2001 182.46303,435.47575 C 180.36634,434.07985 178.85028,433.43941 177.55955,433.48029 C 177.00472,433.49787 176.78766,433.45698 176.22114,433.48029 z M 177.79073,435.1229 C 179.99888,435.1229 182.81589,436.91151 183.42426,440.01421 L 183.57028,441.65682 C 183.73721,443.41448 182.83438,445.11966 181.64781,446.68197 C 179.82999,449.07598 176.2698,448.90861 176.2698,448.90861 C 174.53229,448.96186 171.16678,446.4355 171.19597,444.17547 C 171.20182,443.36936 171.19597,442.75256 171.19597,442.19218 C 171.19597,440.89563 171.86422,439.31078 172.13288,438.91913 C 172.13288,438.91345 173.48638,436.73279 174.48119,436.12063 C 175.27208,435.63392 176.38905,435.1229 177.79073,435.1229 z"
       id="path51"
       style="fill:#ffffff;fill-rule:nonzero;stroke:#ffffff;stroke-width:0.17521125;stroke-linecap:butt;stroke-linejoin:miter;stroke-dasharray:none" />
    <path
       d="M 193.50506,443.12144 C 193.50506,443.12144 194.63809,443.96839 196.89247,445.6913 C 198.0367,446.56156 200.1626,447.9984 200.1626,448.31967 C 200.1626,448.31967 199.32791,449.71561 198.8782,449.95516 C 198.83099,449.05541 198.0367,448.16758 197.3013,447.67708 C 196.17995,446.92946 194.99143,446.15853 194.59478,446.15853 C 193.70168,447.43611 192.04496,449.62197 192.04496,449.89672 C 192.04496,450.08351 193.33666,451.57304 195.46596,452.3031 C 195.46596,452.3031 194.34023,453.92667 194.08861,453.92667 C 194.08276,453.92667 192.24159,451.63388 191.16842,451.35681 C 191.15188,451.35252 190.17313,452.24225 188.34801,454.55407 C 188.34801,454.55407 186.96335,455.883 186.96335,457.89822 C 186.28002,457.86303 184.25926,456.01748 183.92636,455.79554 C 184.18917,455.47422 185.33389,454.89008 185.44486,454.74417 C 185.44486,454.74417 186.88791,453.09398 187.31377,452.34967 C 187.31377,452.34967 191.70817,446.20083 193.03734,444.58197 C 193.64085,443.84671 193.18383,443.60624 193.50506,443.12144 z"
       id="path55"
       style="fill:#ffffff;fill-rule:nonzero;stroke:#ffffff;stroke-width:0.17521125;stroke-linecap:butt;stroke-linejoin:miter;stroke-dasharray:none" />
    <path
       d="M 45.976697,541.12294 C 46.058462,541.17598 45.976697,541.24557 45.976697,541.29815 C 45.976697,541.63737 45.754763,541.78338 45.743324,542.1158 C 45.585537,546.00548 45.801778,548.20779 45.743324,552.10332 C 45.731448,553.11954 46.035148,553.23051 46.035148,553.44661 C 46.035148,553.53421 46.029455,553.5459 46.035148,553.62182 L 43.640645,553.62182 C 43.582191,553.50502 43.564623,553.54005 43.640645,553.3882 C 43.786558,552.80417 43.990919,552.24933 43.990919,551.05206 C 43.990919,549.60948 44.199569,545.48764 44.042268,542.70713 L 43.874502,541.12294 C 43.967655,540.98276 44.802732,541.12294 45.976697,541.12294 z"
       id="path57"
       style="fill:#ffffff;fill-rule:nonzero;stroke:#ffffff;stroke-width:0.17521125;stroke-linecap:butt;stroke-linejoin:miter;stroke-dasharray:none" />
    <path
       d="M 56.310945,540.41998 C 53.898869,540.41998 52.998479,541.38753 52.745882,541.47855 C 52.188613,541.67761 51.369014,542.82232 51.346626,543.9242 C 51.318398,545.32249 53.512431,546.40928 53.512431,546.78356 C 53.512431,547.12229 50.490037,548.1799 51.115445,550.93265 C 51.603116,553.07948 55.011947,553.78276 55.082032,553.85284 C 55.869996,553.85284 56.355234,553.85285 57.138331,553.85284 C 58.405205,553.85284 61.214425,552.22825 61.214425,550.17827 C 61.214425,549.16788 60.695119,548.57802 60.630388,548.42616 C 59.228698,547.02398 58.053806,546.95342 58.245568,546.67404 C 58.586257,546.17713 60.460044,545.40182 60.460044,544.04587 L 60.460044,543.10898 C 60.10232,542.15992 59.248166,541.24737 57.479019,540.77284 C 57.479019,540.77284 56.451113,540.41998 56.310945,540.41998 z M 55.325381,541.35687 L 56.432619,541.35687 C 56.549426,541.51455 58.707932,542.10493 58.707932,543.27933 C 58.707932,543.27932 58.878275,543.52316 58.878275,544.10672 C 58.878275,545.58434 57.239564,546.26036 57.187,546.26036 C 57.187,546.26036 53.037901,545.25727 53.037901,543.23066 C 53.037901,542.98587 53.89449,541.35687 55.325381,541.35687 z M 54.790014,547.25809 C 54.900981,547.2581 59.413644,548.31227 59.413644,550.53113 C 59.41364,551.32591 58.083985,552.82056 57.138331,552.86727 C 56.892548,552.87895 56.738752,552.86144 56.493457,552.86727 C 54.595331,552.92568 52.697213,551.70602 52.697213,549.82542 C 52.697209,548.48796 53.686183,547.25809 54.790014,547.25809 z"
       id="path59"
       style="fill:#ffffff;fill-rule:nonzero;stroke:#ffffff;stroke-width:0.17521125;stroke-linecap:butt;stroke-linejoin:miter;stroke-dasharray:none" />
    <path
       d="M 69.338195,540.53938 C 72.077818,540.53938 73.543265,543.33059 73.543265,543.63429 C 73.543265,543.81535 74.186194,544.49916 74.186194,546.43816 C 74.186194,546.64841 74.220748,546.58417 74.186194,547.31421 C 74.115622,548.67502 73.497029,550.36874 71.148712,552.16173 C 70.529632,552.63479 68.491341,553.79703 66.826348,553.79703 C 66.820995,553.79703 66.254478,553.68022 65.775568,553.56341 C 66.079267,552.33694 67.609444,553.359 70.097444,551.46088 C 71.960524,550.04167 72.37519,547.90944 72.37519,547.19741 L 72.37519,546.02885 C 72.37519,545.47986 71.615942,543.51797 71.615942,543.51797 C 71.615942,543.51164 70.55348,541.59016 69.221389,541.59016 L 68.462139,541.59016 C 67.118853,541.59016 66.067586,543.39484 66.067586,543.40116 C 66.038384,543.52381 65.892375,543.73942 65.892375,543.9268 L 65.892375,545.09438 C 65.892375,547.01051 67.977389,548.24868 69.104581,548.24868 L 69.805426,548.24868 C 69.898872,548.24868 70.0332,548.12603 70.447867,548.19027 C 70.371942,548.30707 69.811266,549.24154 69.046177,549.24154 L 67.761295,549.24154 C 66.59322,549.24154 64.081858,547.62375 64.081858,544.86126 C 64.081858,544.55756 64.040976,544.41155 64.081858,544.10152 C 64.245389,542.89889 66.184394,541.23974 66.184394,541.23974 C 66.184394,541.23974 67.872261,540.53938 69.338195,540.53938 z"
       id="path61"
       style="fill:#ffffff;fill-rule:nonzero;stroke:#ffffff;stroke-width:0.17521125;stroke-linecap:butt;stroke-linejoin:miter;stroke-dasharray:none" />
    <path
       d="M 80.902141,541.06453 C 80.586761,541.54344 80.610122,542.05739 80.610122,542.2326 C 80.610122,547.01636 80.610122,547.74057 80.610122,552.04492 C 80.610122,552.51799 80.855418,552.96186 80.960059,553.3882 C 80.797014,553.46997 79.137861,553.58094 78.507101,553.3882 L 78.507101,553.21299 C 78.507101,553.21299 78.968977,551.87555 78.974331,551.16886 C 79.027381,546.34471 79.132507,544.78533 78.974331,541.99947 C 78.974331,541.99947 78.595193,541.22855 78.565991,541.18133 C 78.665278,541.08205 80.580921,540.87179 80.902141,541.06453 z"
       id="path63"
       style="fill:#ffffff;fill-rule:nonzero;stroke:#ffffff;stroke-width:0.17521125;stroke-linecap:butt;stroke-linejoin:miter;stroke-dasharray:none" />
    <path
       d="M 16.833273,493.58227 C 17.493479,494.34153 19.338063,495.56898 25.669418,497.87009 C 27.64473,498.92379 29.845823,499.46937 30.792112,499.42266 C 31.504587,499.38761 31.305917,499.49322 31.609616,499.42266 L 31.609616,499.88989 C 31.241724,500.31623 31.031665,501.92282 30.441834,502.81007 C 30.336318,502.72295 29.64141,501.95738 29.390468,501.81721 C 29.361025,501.80602 20.483509,498.09105 20.454547,498.07986 C 18.971143,497.4491 16.710673,496.56671 15.607038,496.73657 C 15.589467,496.56136 16.401231,494.11376 16.833273,493.58227 z"
       id="path69"
       style="fill:#ffffff;fill-rule:nonzero;stroke:#ffffff;stroke-width:0.17521125;stroke-linecap:butt;stroke-linejoin:miter;stroke-dasharray:none" />
    <path
       d="M 12.744816,504.62059 C 12.873645,504.65027 14.490114,505.62221 16.30759,506.02227 C 18.794811,506.56981 20.448804,506.89882 20.454547,506.89882 C 20.466423,506.89882 25.862883,508.10729 27.580097,508.53364 C 27.749273,508.57452 28.631415,508.58669 28.631415,508.88454 C 28.631415,509.71972 27.007837,511.07176 25.594323,511.45383 C 25.594323,511.45383 21.301499,513.87223 20.454547,514.08248 C 20.098043,514.16961 15.793832,516.53544 15.431631,516.53544 C 15.431631,516.53544 14.088491,517.10779 14.088491,517.35309 C 14.088491,517.73272 15.14555,517.83785 16.833273,518.34596 C 16.833273,518.34596 21.383265,519.44979 22.965959,519.68925 C 24.974998,519.99294 25.944597,519.52571 25.944597,520.15648 C 25.944597,520.15648 25.658469,522.31742 25.302012,522.31742 C 25.115218,522.31742 24.951734,521.9962 24.426053,521.73337 C 24.426053,521.73337 19.058601,520.43049 18.644129,520.39008 C 18.205907,520.34337 12.009074,518.9884 11.51858,518.9884 L 10.934446,518.9884 C 10.858423,518.9884 9.5912565,519.28042 9.5912565,519.28042 C 9.5618113,519.16361 10.011909,516.69897 10.116939,516.59385 C 10.116939,516.59385 12.032387,515.60098 12.336086,515.60098 C 12.336086,515.60098 19.637043,511.85146 19.753461,511.80474 C 21.22543,511.17398 23.114254,510.28088 23.550094,509.64331 C 22.870906,509.06414 19.753461,508.47523 18.877503,508.30051 C 15.239142,507.57581 13.387403,507.19035 13.387403,507.19035 C 13.330411,507.17916 12.102714,507.38309 12.102714,507.30764 C 12.102714,506.61849 12.610779,505.17591 12.744816,504.62059 z"
       id="path71"
       style="fill:#ffffff;fill-rule:nonzero;stroke:#ffffff;stroke-width:0.17521125;stroke-linecap:butt;stroke-linejoin:miter;stroke-dasharray:none" />
    <path
       d="M 25.127093,525.00349 C 25.383778,525.48241 25.292032,526.51567 25.304395,526.76778 C 25.365232,528.04536 24.700792,528.75935 23.725014,529.73469 C 22.428886,531.03125 20.924114,532.06062 20.104223,532.47918 C 20.104223,532.47918 16.810009,534.58219 16.716854,534.6406 C 16.506309,534.32474 16.541449,534.3953 16.541449,533.82295 C 16.541449,532.80088 15.063785,530.26032 13.504356,530.26032 L 12.744816,530.26032 C 11.78568,530.26032 10.204399,531.48096 10.116939,533.18051 C 10.093674,533.6711 10.116939,534.4065 10.116939,534.4065 C 10.116939,534.99687 10.012883,535.47723 11.55518,535.40667 C 11.724404,535.40082 19.987318,535.40569 20.045772,535.57506 L 22.732099,535.57506 C 23.374735,535.57506 24.093347,535.48113 24.65991,534.99102 L 24.893283,534.99102 C 25.109521,538.0689 24.694613,538.47189 24.893283,538.84519 L 24.717877,538.84519 C 23.801036,538.23828 22.942695,538.10978 22.381825,538.08642 C 20.314332,538.00466 14.847497,537.85233 14.847497,537.85233 C 14.731078,537.84112 9.4743517,537.6776 9.4743517,537.6776 C 9.2409801,537.57831 9.2000975,537.71264 8.7152977,537.96962 L 8.8783415,532.24313 C 8.9467712,529.83349 10.749111,527.57327 12.511444,527.57327 L 13.387403,527.57327 C 13.387403,527.57327 15.157426,527.88281 15.723942,529.20905 C 15.73538,529.23776 16.950226,531.77882 17.125584,531.77882 C 17.697843,531.77882 19.098997,530.60052 21.447412,528.74182 C 21.474036,528.72041 24.270162,526.34192 25.127093,525.00349 z"
       id="path73"
       style="fill:#ffffff;fill-rule:evenodd;stroke:#ffffff;stroke-width:0.17521125;stroke-linecap:butt;stroke-linejoin:miter;stroke-dasharray:none" />
    <path
       d="M 20.68787,565.5357 C 20.828091,565.5357 20.769636,565.66419 20.746371,565.7698 L 20.746371,566.52856 C 20.746371,567.01916 21.213555,568.07042 21.213555,568.45589 C 21.213555,568.836 21.534873,569.50715 22.031546,569.50715 C 22.031546,569.50715 27.760713,568.33324 29.040194,566.41176 C 29.133348,566.55193 29.974603,568.21643 29.799249,568.57319 C 29.869574,568.86471 30.149523,569.52517 30.149523,569.91599 C 30.149523,570.23721 30.155706,569.99775 30.033058,570.15008 C 29.927542,570.06248 29.092465,569.91599 29.040194,569.91599 C 28.344847,569.91599 24.256877,571.31816 24.250694,571.31816 C 23.987831,571.41161 19.637043,572.77825 19.578589,572.77825 C 19.537706,572.77825 16.769126,573.77112 16.366091,573.77112 C 15.93405,573.77112 14.905998,574.8803 14.905998,574.8803 C 14.444462,574.18578 13.270499,570.27809 13.270499,569.85758 C 13.270499,569.54268 12.336086,567.41679 12.336086,566.82107 C 12.336086,566.29544 13.790486,566.23703 14.146943,566.00293 C 14.228709,566.0151 14.316168,566.02045 14.438768,566.00293 C 14.40358,566.23071 14.146943,566.93155 14.146943,567.34621 C 14.146943,568.32789 14.672626,569.65316 14.672626,569.97438 C 14.672626,570.28392 14.96445,570.4713 14.96445,570.90885 C 14.96445,571.18919 15.197821,571.49337 15.607038,571.49337 C 15.607038,571.49337 16.231568,571.31816 16.541449,571.31816 C 16.733938,571.31816 18.351818,570.5589 18.935953,570.5589 C 18.935953,570.5589 20.162237,570.226 20.162237,569.74125 C 20.162237,569.68285 19.899374,568.68415 19.753461,568.51429 C 19.858491,568.39164 19.753461,568.42718 19.753461,568.33957 C 19.753461,567.68496 19.169327,566.57529 19.169327,566.17863 C 19.169327,565.86276 20.197377,565.5357 20.68787,565.5357 z"
       id="path75"
       style="fill:#ffffff;fill-rule:nonzero;stroke:#ffffff;stroke-width:0.17521125;stroke-linecap:butt;stroke-linejoin:miter;stroke-dasharray:none" />
    <path
       d="M 32.660935,576.57401 C 32.696121,576.57401 33.24507,577.18141 33.24507,577.80048 C 33.24507,578.02291 33.77075,578.46677 33.77075,579.02697 C 33.77075,579.10289 33.957544,579.59349 34.004123,579.66941 L 34.004123,579.90351 C 33.543073,580.01399 33.478439,579.90351 33.420475,579.90351 C 31.7731,579.90351 30.61101,581.1295 29.799249,581.1295 C 29.653285,581.1295 29.110033,581.56217 28.923239,581.53832 L 25.360462,583.11523 C 24.023017,583.78152 20.851401,584.74518 19.519652,586.26951 C 19.321418,586.10015 18.410319,584.37723 18.410319,583.93337 C 18.410319,583.88615 18.21165,583.74064 18.059558,583.11523 C 18.124191,583.09235 19.332858,582.9697 19.519652,583.11523 L 23.725014,581.24679 C 26.896629,579.66405 28.397605,579.08536 28.397605,579.08536 C 29.425173,578.82888 30.675207,578.19179 30.792112,578.15091 C 31.861045,577.76545 32.491758,576.57401 32.660935,576.57401 z"
       id="path77"
       style="fill:#ffffff;fill-rule:nonzero;stroke:#ffffff;stroke-width:0.17521125;stroke-linecap:butt;stroke-linejoin:miter;stroke-dasharray:none" />
    <path
       d="M 35.698073,584.86734 C 36.56834,584.86734 37.12298,586.53234 38.034125,587.90433 L 40.778908,592.63552 C 40.475209,593.09058 40.078355,592.63552 40.078355,592.63552 C 40.078355,592.63552 39.114452,593.21957 38.851634,593.21957 C 38.419591,593.21957 35.937139,595.14689 34.296434,595.96454 C 30.873877,597.67577 30.400464,598.70951 29.682292,598.70951 C 29.682292,598.70951 28.51972,599.42788 28.338668,599.70238 C 27.929889,599.55053 27.270218,600.83541 27.170881,600.98726 C 27.030665,600.87678 25.360027,598.38829 25.360027,597.95027 C 25.360027,597.95027 26.224546,598.04955 27.81347,597.13262 C 29.290649,596.27992 29.64141,595.97622 29.857212,596.02295 L 34.938533,592.69393 C 34.944229,592.69393 37.6838,591.46161 37.6838,590.7082 C 37.6838,590.36362 37.39154,590.08912 37.39154,589.71534 C 37.39154,589.71534 36.398626,587.98026 36.398626,587.90433 C 36.398626,587.90433 35.108246,585.98918 33.770263,585.10096 C 34.132464,584.65709 34.529803,585.04255 34.529803,585.04255 C 34.5355,585.04255 34.395281,584.86734 35.113938,584.86734 C 35.423334,584.86734 35.213276,584.86734 35.698073,584.86734 z"
       id="path79"
       style="fill:#ffffff;fill-rule:evenodd;stroke:#ffffff;stroke-width:0.17521125;stroke-linecap:butt;stroke-linejoin:miter;stroke-dasharray:none" />
    <path
       d="M 56.431311,611.61626 C 56.840137,611.61626 59.281413,613.30851 59.555911,613.58252 C 60.121941,614.14903 61.472527,615.55997 61.624377,615.71183 C 62.733562,616.8215 63.834472,619.21312 63.673375,621.66219 C 63.546834,623.59097 62.476098,625.50662 61.862859,626.27609 C 60.805751,627.60331 58.611717,629.08531 56.489714,629.43037 C 55.175631,629.64355 54.384746,629.4002 53.335912,629.13787 C 51.064002,628.57135 47.96262,626.4513 46.32712,623.99834 L 47.670795,622.30463 C 47.851847,622.42144 48.622726,623.72384 48.546801,623.93994 C 48.587684,624.1093 49.517763,625.50662 50.856182,626.48002 C 50.856182,626.48002 52.658916,627.44611 53.627931,627.56097 C 54.263071,627.63592 55.540653,627.51424 56.2707,627.2709 C 56.2707,627.2709 58.095818,626.96671 59.677586,624.83741 C 59.677586,624.83741 61.337225,622.97628 61.337225,620.49412 C 61.337225,619.88039 61.20971,618.78823 61.016005,618.20615 C 60.529307,616.74605 58.668174,614.96912 58.65114,614.94576 C 58.59809,614.87518 56.250259,613.0121 54.38718,612.72593 L 54.38718,612.55121 C 54.38718,612.55121 56.063367,611.61626 56.431311,611.61626 z"
       id="path81"
       style="fill:#ffffff;fill-rule:nonzero;stroke:none" />
    <path
       d="M 17.813142,543.68086 C 17.466358,543.678 17.067133,543.68159 16.827579,543.69303 C 13.74391,543.8512 9.6812482,546.32751 9.0039107,551.16384 C 8.9982163,551.22224 9.0039107,552.68477 9.0039107,552.68477 C 9.0334046,553.42066 9.5879482,555.1426 9.5879482,555.1426 C 9.5879482,555.87264 10.936149,557.61308 10.877698,557.77075 C 10.924761,557.79996 13.72561,561.0438 16.657235,561.0438 L 17.946985,561.0438 C 18.62476,561.0438 19.115059,560.75178 19.115059,560.75178 C 19.27236,560.75178 19.652035,560.75178 19.699096,560.75178 C 21.603109,560.75178 24.233271,558.1606 24.420066,557.88027 C 25.331211,556.51362 26.087105,554.96494 26.233015,553.62166 L 26.233015,551.74787 C 26.180744,550.13009 25.613204,549.21801 24.894596,547.78129 C 23.679748,545.34585 20.48161,543.65214 18.531022,543.69303 C 18.46376,543.69303 18.159927,543.68371 17.813142,543.68086 z M 18.117328,546.19951 L 19.175896,546.19951 C 19.712965,546.1995 20.02791,546.49154 20.039785,546.49154 C 20.255586,546.57963 24.712084,547.49852 24.712084,551.80871 C 24.712084,552.10074 24.747271,552.28324 24.712084,552.57526 C 24.344238,555.58889 21.422934,557.47874 21.037515,557.47874 C 21.037515,557.47875 19.346339,558.37086 17.302109,558.4643 C 16.899075,558.48182 16.657332,558.4643 16.073197,558.4643 C 12.563133,558.46429 10.524841,554.25534 10.524841,552.68477 C 10.524841,551.34733 11.435209,548.13463 15.318816,546.84439 C 15.465214,546.79718 17.147729,546.19951 18.117328,546.19951 z"
       id="path83"
       style="fill:#ffffff;fill-rule:nonzero;stroke:#ffffff;stroke-width:0.17521125;stroke-linecap:butt;stroke-linejoin:miter;stroke-dasharray:none" />
    <path
       d="M 24.188884,479.15688 C 23.33624,479.15688 22.205591,481.90674 22.205591,481.90673 C 22.205591,481.97681 24.569677,483.58097 25.247452,484.93643 C 25.317342,485.07659 26.201381,486.07675 27.924291,488.33114 C 31.417224,492.90416 33.034619,494.82661 33.034618,495.80195 C 33.034618,495.90757 34.592052,492.76009 34.592052,492.76009 C 32.004571,491.81979 30.260442,488.1462 30.26044,488.08779 C 30.26044,487.8313 30.688007,487.4507 31.611027,485.28927 C 31.611027,485.28927 32.931583,482.99108 33.241465,482.72195 L 33.886339,482.72195 C 34.2371,482.72195 36.360516,483.12347 36.453671,483.12348 C 38.32254,483.12348 38.487237,483.44372 39.264351,484.12121 C 39.754845,483.79414 41.125971,480.67781 41.125971,480.67782 C 41.125971,480.67782 39.738154,481.03067 39.726715,481.03067 L 38.157114,481.03067 C 36.428024,481.03067 33.27787,480.34248 33.131958,480.32496 L 27.814783,479.68009 C 27.188353,479.60464 24.591968,479.15688 24.188884,479.15688 z M 24.882429,481.56604 L 26.35469,481.61471 C 26.354689,481.6147 28.354435,481.78164 29.627733,481.9919 C 30.486121,482.13207 31.087827,482.17441 31.45285,482.53943 C 31.209502,483.33031 30.662453,484.38256 30.35778,484.79041 C 30.357781,484.79041 29.566993,486.37413 29.043696,486.81021 C 28.35025,486.25246 27.436183,484.7325 26.829221,484.06037 C 25.06494,482.11552 24.882429,481.81766 24.882429,481.56604 z"
       id="path87"
       style="fill:#ffffff;fill-rule:nonzero;stroke:#ffffff;stroke-width:0.17521125;stroke-linecap:butt;stroke-linejoin:miter;stroke-dasharray:none" />
    <path
       d="M 43.352613,596.48757 C 43.264669,596.76159 42.763806,598.88261 42.646902,599.11574 C 41.140232,602.12986 40.032796,604.03089 39.787552,604.60327 C 38.946292,606.56563 35.808798,611.3304 35.808797,612.31742 C 35.808797,612.5744 36.599778,613.41493 36.74569,613.60717 C 37.388326,614.44867 37.829664,614.77526 37.852927,614.77525 C 38.133363,614.77525 38.052616,614.38734 40.371589,613.54634 C 41.895829,612.99734 43.170102,612.48777 43.170102,612.48777 C 43.742361,612.48777 48.761773,610.68698 48.779295,610.68698 C 49.357492,610.68698 52.113175,609.56757 52.113175,609.56758 C 53.22285,609.56758 54.282874,609.55395 54.388487,609.51891 C 53.774762,609.11009 53.006756,607.28302 52.113175,607.06109 C 51.581701,608.12988 47.194314,609.45809 46.674326,609.45808 C 45.833557,609.45808 45.119521,607.8909 44.459851,607.23143 C 42.964567,605.73629 42.525227,604.79844 42.525227,604.6641 C 42.525227,603.96909 44.910339,599.94799 44.922214,599.93096 C 45.003979,599.83168 45.645202,599.72559 45.919944,599.4686 C 45.411832,598.88505 43.960012,597.01905 43.352613,596.48757 z M 41.649171,606.53789 C 41.737115,606.5379 42.751833,607.37062 43.230939,608.22916 C 43.359233,608.46229 44.569358,609.58413 44.569358,609.98128 C 44.569358,610.3901 42.556913,610.79552 42.294045,610.91817 C 41.616321,611.2394 40.442697,611.73339 39.957895,611.73339 C 39.951716,611.73339 39.447837,612.0254 39.021002,612.0254 C 38.822819,612.0254 38.728984,611.97528 38.728984,611.79423 C 38.728985,611.59565 39.495922,610.27086 40.07957,609.04438 C 41.224525,606.65519 41.357347,606.53789 41.649171,606.53789 z"
       id="path91"
       style="fill:#ffffff;fill-rule:nonzero;stroke:#ffffff;stroke-width:0.17521125;stroke-linecap:butt;stroke-linejoin:miter;stroke-dasharray:none" />
    <path
       d="M 208.86475,456.37909 C 209.20934,456.37909 210.20804,457.45372 210.96777,458.59868 L 213.23044,461.24607 L 215.99049,464.4977 C 216.67334,465.27982 216.86655,465.2331 216.86655,465.49056 C 216.86655,465.57233 215.04971,466.42503 214.88083,466.42503 C 214.57128,466.42503 214.70512,466.08044 214.70512,465.95779 C 214.70512,465.19222 212.98222,462.80351 212.25218,462.80351 C 212.06528,462.80351 209.71745,464.67874 209.21518,465.25646 C 209.21518,465.25646 206.78558,467.23099 206.3534,467.88512 C 206.18986,467.82671 204.08149,469.7482 203.90044,469.92925 C 203.2288,470.60089 202.30602,470.92211 201.91471,472.49901 C 201.337,472.28827 200.55974,470.93964 199.57856,469.81244 L 199.57856,469.63723 C 202.16584,468.99479 203.73691,466.55302 205.41893,465.43216 C 205.41893,465.43216 207.8607,463.2829 208.106,463.0376 C 208.66035,462.48229 210.12433,461.78387 210.73611,460.88104 C 209.33685,458.32588 207.42218,457.58824 207.11313,457.19708 C 207.11313,457.19708 208.50898,456.37909 208.86475,456.37909 z"
       id="path95"
       style="fill:#ffffff;fill-rule:nonzero;stroke:#ffffff;stroke-width:0.17521125;stroke-linecap:butt;stroke-linejoin:miter;stroke-dasharray:none" />
    <path
       d="M 219.78674,469.63674 C 220.07292,470.06893 220.34839,470.06747 220.6628,470.5712 C 220.6628,470.5712 220.9665,471.31878 222.76533,474.01702 L 224.607,476.8204 C 224.607,476.8204 222.96391,477.58549 222.76533,477.75535 C 222.56092,477.55093 222.53124,477.04282 222.53124,476.64568 C 222.53124,476.18964 221.78366,475.26735 221.42156,474.71836 C 220.69784,473.63156 220.52214,473.08256 220.01987,473.08256 C 219.576,473.08256 219.30734,473.4218 217.97573,474.30953 C 216.57405,475.24399 216.28252,475.58857 216.28252,475.82803 C 216.28252,476.32397 218.26824,478.68348 218.26824,479.04023 C 218.26824,479.32592 217.57276,479.41986 216.86655,480.03309 C 216.86655,480.03309 216.759,478.94971 214.70512,476.64568 C 213.53462,477.12459 209.79922,479.81116 209.79922,479.97421 C 209.79922,480.03845 209.87514,482.65543 214.35519,485.63986 C 214.25542,485.76251 212.69069,486.34071 212.13536,486.34071 C 211.66813,486.34071 211.13666,485.06166 209.39039,482.77807 C 209.39039,482.77223 206.69798,478.54964 206.64541,478.3389 C 207.87675,478.2805 208.60777,477.63854 208.80635,477.63854 C 208.95236,477.63854 214.02813,474.09879 214.47152,473.8423 C 215.92576,473.0008 218.75835,471.18445 219.78674,469.63674 z"
       id="path97"
       style="fill:#ffffff;fill-rule:nonzero;stroke:#ffffff;stroke-width:0.17521125;stroke-linecap:butt;stroke-linejoin:miter;stroke-dasharray:none" />
    <path
       d="M 224.10862,485.63937 C 224.27751,485.63937 225.58039,485.76347 226.31045,486.00683 C 228.80234,486.83762 230.6732,488.52597 231.2991,489.59622 C 232.29926,491.30794 233.51162,494.65691 233.51162,494.98397 C 233.51162,495.17719 233.32473,495.22927 233.21912,495.39328 C 232.93927,495.28767 232.18538,496.09413 231.64271,496.09413 C 231.39108,496.09413 231.46749,494.63403 231.46749,494.63403 C 231.21052,492.49402 229.37664,488.03392 225.39301,488.03392 C 225.39301,488.03392 224.1719,488.20135 224.10862,488.20913 C 221.80849,488.50116 219.88943,490.20459 219.78625,490.31215 C 217.67155,492.51641 217.9149,494.4632 218.55978,497.49533 L 219.20271,498.89751 C 219.67529,500.32255 221.77198,501.9345 221.77198,501.9345 C 221.48581,502.28492 220.62727,502.22652 220.07828,502.22652 C 219.41247,502.22652 218.34953,501.09932 217.33329,498.7223 C 216.46892,496.69569 216.22362,495.28767 216.22362,493.75798 C 216.22362,491.98834 216.67334,490.82562 217.2749,489.78652 C 217.47931,489.42977 219.00997,487.64943 219.72834,487.27467 C 219.72834,487.27467 222.34482,485.63937 224.10862,485.63937 z"
       id="path99"
       style="fill:#ffffff;fill-rule:nonzero;stroke:#ffffff;stroke-width:0.17521125;stroke-linecap:butt;stroke-linejoin:miter;stroke-dasharray:none" />
    <path
       d="M 236.37341,503.04368 C 236.63039,503.55813 237.19057,505.32192 237.19057,505.90596 C 237.19057,506.34349 237.1385,506.31478 236.37341,506.31478 C 236.24444,506.31478 235.3163,506.2851 235.08804,506.31478 C 235.08804,506.31478 231.05818,507.0093 231.05818,507.71599 C 231.05818,507.87952 232.40195,513.55636 232.40195,513.55636 C 232.5066,513.98904 232.81029,515.60098 233.56954,515.60098 C 233.83236,515.60098 234.07182,515.30897 234.97172,515.30897 C 234.97172,515.30897 237.87974,514.71909 238.94317,513.79047 C 238.98406,513.84254 239.32961,514.90451 239.58512,515.893 C 239.58512,515.893 239.75499,516.8333 239.81923,517.11947 C 238.70372,516.94378 238.83756,517.14284 237.89191,517.11947 C 236.78223,517.09612 235.74022,517.52052 234.73762,517.76191 C 234.64709,517.78382 229.58641,519.00592 229.30607,519.04681 C 227.97447,519.25121 225.91865,519.63084 224.51696,520.85732 C 223.75528,519.34563 223.46569,517.17788 223.46569,517.17788 C 223.89204,517.13116 224.14609,517.338 224.40016,517.4699 C 224.85035,517.70303 226.18877,517.58136 229.7149,516.53544 C 229.83803,516.49845 231.29179,516.20254 231.29179,515.7762 C 231.29179,515.23888 230.99491,514.66117 230.76617,513.43955 C 230.76617,513.43955 229.35279,508.07858 229.18926,507.83328 L 224.57585,508.82614 C 223.81612,509.06414 223.32942,508.82079 221.88879,510.16943 C 221.38652,509.7606 221.26095,508.82079 221.07114,508.12481 C 221.0945,508.06641 221.03026,506.89249 220.89593,506.4895 L 222.70644,506.66471 C 222.70644,506.66471 234.00222,503.97815 234.5624,503.97815 C 234.70258,503.97815 235.6492,503.67493 236.37341,503.04368 z"
       id="path101"
       style="fill:#ffffff;fill-rule:nonzero;stroke:#ffffff;stroke-width:0.17521125;stroke-linecap:butt;stroke-linejoin:miter;stroke-dasharray:none" />
    <path
       d="M 240.87049,525.70434 C 240.92841,525.79195 241.10411,527.38637 241.10411,528.1573 C 241.10411,528.77687 237.98487,531.07749 237.48259,531.83722 C 237.30787,531.77249 235.24816,533.76941 234.40179,534.61578 C 233.66542,535.35215 230.56905,537.5968 230.06532,538.61206 C 229.96408,538.81599 232.5066,538.72886 232.69349,538.72886 C 236.01131,538.65294 238.18928,538.55365 239.58512,538.55365 L 241.51246,537.79441 C 241.56551,537.94625 241.68231,538.24411 241.68815,538.43685 C 241.74071,539.47643 241.68815,539.75677 241.68815,540.65619 C 241.33773,540.75548 240.42468,540.2128 238.47789,540.33448 C 238.31436,540.3447 235.23405,540.53013 234.79651,540.53938 C 234.79651,540.53938 231.16914,540.63867 229.96067,540.63867 C 228.78676,540.63867 228.17888,540.71459 226.15227,540.71459 C 226.11771,540.71459 225.39301,541.1935 225.39301,540.48097 C 225.39301,540.43426 225.38134,539.68084 226.6195,538.26164 C 227.0692,537.74184 228.37745,536.56792 228.43002,536.56792 C 228.54099,536.56792 231.266,534.13541 231.29179,534.11497 C 233.00254,532.79067 234.75563,531.17726 235.67207,530.26032 C 236.70047,529.23193 237.07377,528.94039 237.07377,528.68342 C 237.07377,528.41477 236.75255,528.3914 236.54813,528.3914 C 235.4039,528.3914 234.74346,528.56613 234.5624,528.56613 C 234.5624,528.56613 231.51373,528.51989 230.99978,528.56613 C 230.99978,528.56613 228.68699,528.6766 228.43002,528.68342 C 227.16217,528.71457 225.27621,529.38378 225.27621,529.38378 C 224.82651,529.38378 225.03091,528.8523 224.98419,527.69056 C 224.95499,527.0009 224.99003,526.79114 224.98419,526.69721 C 225.36966,526.76145 226.06466,526.99604 226.26907,526.98922 C 226.26907,526.98922 231.01146,526.83786 231.58382,526.8145 C 233.70971,526.72641 238.16057,526.69185 238.47545,526.6388 C 238.47545,526.6388 239.62601,526.40568 239.76082,526.40568 C 239.76082,526.40568 240.50207,525.89708 240.87049,525.70434 z"
       id="path103"
       style="fill:#ffffff;fill-rule:nonzero;stroke:#ffffff;stroke-width:0.17521125;stroke-linecap:butt;stroke-linejoin:miter;stroke-dasharray:none" />
    <path
       d="M 232.16706,546.26036 C 226.62454,546.26036 225.00384,550.32234 224.34339,551.86955 C 224.34412,551.86687 224.33432,551.88512 224.33122,551.89388 C 222.78638,557.13467 224.94336,560.36278 226.32668,561.44533 C 228.49978,563.14585 230.26405,563.75178 233.62715,563.42862 C 235.01132,563.29575 237.13381,561.91986 237.19221,561.91986 C 237.36158,561.91986 238.77203,560.58922 239.58919,559.17002 C 240.27301,557.98442 240.57476,555.08174 240.57476,555.08175 C 240.57476,554.74837 240.27397,552.50615 240.24624,552.38058 C 239.51619,549.09537 237.13088,547.8397 236.66901,547.48926 C 235.89808,546.90523 232.7686,546.26036 232.16706,546.26036 z M 231.8142,548.88852 L 232.69026,548.88852 C 234.30804,548.88851 239.05383,550.22208 239.05383,555.08175 C 239.05383,558.52172 235.27949,560.83793 233.74882,560.86129 L 231.23017,560.86129 C 227.65585,560.49335 225.15861,557.02319 225.15861,555.43461 L 225.15861,554.66806 C 225.1586,552.71688 227.10053,548.88852 231.8142,548.88852 z"
       id="path105"
       style="fill:#ffffff;fill-rule:evenodd;stroke:#ffffff;stroke-width:0.17521125;stroke-linecap:butt;stroke-linejoin:miter;stroke-dasharray:none" />
    <path
       d="M 221.77198,566.41176 C 222.09905,566.41176 222.09905,567.22357 224.80898,568.04706 C 226.84776,568.66663 227.98615,569.06913 228.2548,569.27402 L 231.75902,570.44161 C 233.26633,570.89765 234.51569,571.58682 235.20484,571.61018 C 236.50725,571.66225 236.09843,571.35855 236.66494,571.61018 L 235.61368,574.8803 L 235.43895,574.8803 C 234.83155,573.96384 233.66883,573.4791 229.24767,572.13581 C 224.6805,570.74532 223.46569,569.85758 222.58963,569.85758 C 221.515,569.85758 220.54551,574.09817 220.54551,574.12154 C 220.44622,576.55697 220.54551,574.7523 220.54551,576.6913 C 220.01403,576.74922 218.79339,575.45314 218.79339,574.99759 C 218.79339,574.73478 219.80378,571.29431 220.19508,570.61731 C 220.42286,570.21433 221.44493,566.41176 221.77198,566.41176 z"
       id="path109"
       style="fill:#ffffff;fill-rule:nonzero;stroke:#ffffff;stroke-width:0.17521125;stroke-linecap:butt;stroke-linejoin:miter;stroke-dasharray:none" />
    <path
       d="M 220.62015,580.52388 C 220.39403,580.52158 220.17202,580.53556 219.96311,580.54822 C 217.91654,580.67233 216.27636,581.76497 216.27637,581.76496 C 213.73045,583.26156 211.89609,586.37109 211.89609,589.30878 C 211.89609,590.87984 212.77847,594.32032 215.87485,596.31723 C 217.36901,597.28041 218.15502,597.64545 219.54941,597.77732 C 219.84046,597.80458 221.75171,598.13019 223.69851,597.52181 C 225.33333,597.01077 227.40958,594.7233 227.40958,594.72329 C 228.60053,592.93614 229.64109,590.75866 229.29553,588.09204 C 228.97675,585.63373 227.91039,583.82273 226.21717,582.53152 C 224.18327,580.9784 222.20299,580.54005 220.62015,580.52388 z M 219.02621,582.99388 C 219.56938,582.97052 219.88231,583.0002 220.42547,582.99388 C 220.43715,582.99388 222.32261,582.88729 225.21944,584.98934 C 227.17547,586.40854 227.58674,588.45706 227.49476,590.41601 C 227.38574,592.73369 225.70566,594.38164 223.82019,595.08832 C 222.84678,595.45335 221.38621,595.39786 221.07034,595.38034 C 218.55316,595.20513 216.95872,594.14851 216.10602,593.39704 C 214.50723,591.98758 213.6482,590.36832 213.6482,589.0776 C 213.64821,585.4152 216.73678,583.10533 219.02621,582.99388 z"
       id="path111"
       style="fill:#ffffff;fill-rule:nonzero;stroke:#ffffff;stroke-width:0.17521125;stroke-linecap:butt;stroke-linejoin:miter;stroke-dasharray:none" />
    <path
       d="M 209.27358,599.17625 C 212.86541,599.3466 215.2989,602.4493 216.10682,604.43259 C 216.1185,604.46034 216.51613,606.42465 216.51613,606.82763 C 216.51613,607.13134 216.61493,607.01939 216.51613,607.99571 C 216.39397,609.20223 216.00364,610.9923 214.472,613.13524 C 213.41294,614.61675 211.64477,616.52266 210.73368,616.52266 C 210.54143,616.52266 210.00996,616.02039 209.27358,615.17938 C 209.27358,615.17938 214.472,613.19948 214.472,609.16378 C 214.472,608.95937 214.472,608.84256 214.472,608.63815 C 214.472,603.34677 210.27375,601.29923 208.22231,601.51241 C 208.22231,601.51241 206.66002,601.41507 205.41893,601.80491 C 205.41893,601.80491 203.49745,602.71601 202.55715,603.79064 C 201.94391,604.491 200.68823,606.04503 200.68823,606.71083 C 200.68823,607.16053 202.2481,608.41622 202.84917,608.87177 L 203.78363,609.80623 C 204.56088,610.32018 205.36053,610.33186 205.36053,610.62388 C 205.36053,610.82245 204.02309,612.43439 203.66731,612.43439 C 203.6493,612.43439 202.18337,611.37729 200.86344,609.86463 C 200.65903,609.63101 198.11846,607.58689 198.11846,607.23646 C 198.11846,607.11966 198.9478,605.57195 201.27227,602.91458 C 201.58765,602.55248 204.10485,600.13749 206.84253,599.40744 C 207.62221,599.19962 209.27358,599.17625 209.27358,599.17625 z"
       id="path115"
       style="fill:#ffffff;fill-rule:nonzero;stroke:#ffffff;stroke-width:0.17521125;stroke-linecap:butt;stroke-linejoin:miter;stroke-dasharray:none" />
    <path
       d="M 191.16842,612.96003 C 191.34947,614.16267 191.55389,614.3846 191.92767,614.94576 C 192.10288,615.35458 194.99971,618.70648 195.13987,618.8004 C 195.13987,618.8004 196.41307,619.22091 196.95088,619.38445 C 197.13777,619.43652 198.82515,619.90375 200.57142,620.43571 C 200.62983,620.45274 203.71452,621.33999 204.25134,621.42857 C 204.25134,621.42857 205.19992,621.18717 205.74745,621.67387 C 205.74745,621.67387 203.42737,623.69464 202.96597,623.76473 L 195.78231,621.6033 C 194.73592,621.12633 195.25669,621.907 195.25669,622.30463 C 195.25669,622.61953 195.4903,624.74007 195.4903,624.99072 C 195.4903,628.62391 196.57125,628.64144 196.89247,628.90425 C 196.8803,628.92177 194.32222,630.94887 194.32222,630.94887 L 194.14701,630.07233 C 194.14701,630.07233 193.91389,628.3319 193.91389,627.26895 C 193.91389,627.11126 193.56297,624.13802 193.56297,623.76473 C 193.56297,623.56031 193.32935,620.65765 193.27096,620.49412 C 193.09575,620.00304 190.02371,616.41704 189.47471,616.05543 C 189.20022,615.87438 188.23071,615.72789 187.89781,615.64612 C 188.82643,614.58366 191.16842,612.96003 191.16842,612.96003 z"
       id="path117"
       style="fill:#ffffff;fill-rule:nonzero;stroke:#ffffff;stroke-width:0.17521125;stroke-linecap:butt;stroke-linejoin:miter;stroke-dasharray:none" />
  </g>
</svg>
