<svg version="1.1" id="Layer_1" xmlns="http://www.w3.org/2000/svg" xmlns:xlink="http://www.w3.org/1999/xlink" x="0px" y="0px"
	 width="100%" viewBox="0 0 400 400" enable-background="new 0 0 400 400" xml:space="preserve">
<path fill="#CD3538" opacity="1.000000" stroke="none" 
	d="
M276.000000,401.000000 
	C185.361511,401.000000 95.222992,400.979614 5.084611,401.082672 
	C1.846530,401.086365 0.891573,400.684845 0.895011,397.086914 
	C1.019988,266.294586 1.014558,135.502090 0.914793,4.709717 
	C0.912337,1.489951 1.761055,0.927311 4.788049,0.929213 
	C135.580460,1.011386 266.372925,1.009566 397.165344,0.938302 
	C400.080627,0.936714 401.095825,1.327772 401.093018,4.663103 
	C400.983551,135.622070 400.985229,266.581146 401.089661,397.540161 
	C401.092133,400.631683 400.334290,401.082275 397.461731,401.074463 
	C357.141388,400.964752 316.820648,401.000000 276.000000,401.000000 
z"/>
<path fill="#FDFAF9" opacity="1.000000" stroke="none" 
	d="
M188.117615,222.898331 
	C176.312805,210.773788 163.659973,200.231918 151.477997,189.177139 
	C129.547318,169.275711 107.474266,149.531189 85.461006,129.720749 
	C84.243370,128.624969 82.695099,127.740410 82.796951,125.374359 
	C81.298851,121.503632 82.312050,117.833199 81.991264,113.834770 
	C81.979408,112.868065 81.930748,112.319664 81.733063,111.376640 
	C81.505028,110.407089 81.621552,109.888168 82.168716,109.786163 
	C82.678207,108.101570 82.988022,106.050903 83.414055,103.230972 
	C91.265335,110.157166 98.704315,116.710892 106.133865,123.275291 
	C139.690323,152.924255 173.245407,182.574738 206.791534,212.235367 
	C207.656830,213.000443 208.413315,213.888565 209.442322,214.959167 
	C211.280670,216.981750 210.985779,219.204315 210.980972,221.313766 
	C210.932861,242.439987 211.040833,263.566193 210.969482,284.692169 
	C210.956589,288.507812 210.368118,292.311035 210.011032,296.456024 
	C203.361450,300.829254 197.016174,304.748596 189.862671,307.808746 
	C187.348022,306.212738 189.112701,304.182281 189.101044,302.469025 
	C188.949631,280.225800 189.071640,257.980713 188.933929,235.737259 
	C188.908401,231.615723 188.564804,227.471649 188.117615,222.898331 
z"/>
<path fill="#FEFAFA" opacity="1.000000" stroke="none" 
	d="
M221.929504,95.784027 
	C223.429184,94.668472 224.741516,94.599533 226.087891,94.599899 
	C255.849152,94.607956 285.610413,94.604591 315.371674,94.616333 
	C316.343140,94.616722 317.314575,94.752800 318.558105,94.846024 
	C312.522125,101.099777 306.733215,107.107048 300.929840,113.100266 
	C300.025909,114.033775 298.801422,113.929802 297.645172,113.929741 
	C273.370636,113.928467 249.096085,113.923073 224.821579,113.886124 
	C224.201447,113.885185 223.581863,113.519539 222.653702,113.058487 
	C220.507523,107.306015 221.894119,101.673592 221.929504,95.784027 
z"/>
<path fill="#FDF8F7" opacity="1.000000" stroke="none" 
	d="
M221.982254,227.711121 
	C224.200531,226.883850 225.079865,228.392029 226.130173,229.322464 
	C241.702179,243.117142 257.214172,256.979645 272.814514,270.742065 
	C274.728577,272.430603 275.579468,274.170776 275.515411,276.747925 
	C275.351410,283.346130 275.460693,289.951141 275.460693,297.968140 
	C257.248138,281.462463 240.043961,265.870697 222.605743,250.056427 
	C220.496933,246.476669 221.761185,242.852020 221.562134,239.362869 
	C221.347122,235.593918 221.375763,231.795013 221.982254,227.711121 
z"/>
<path fill="#BE4D51" opacity="1.000000" stroke="none" 
	d="
M107.333405,108.421486 
	C103.330940,107.273743 100.509621,104.451965 97.430153,101.958778 
	C95.765656,100.611176 93.321884,101.002670 92.688438,97.514267 
	C91.926186,93.316498 93.737770,92.540154 96.599312,92.621773 
	C132.317139,93.640465 168.040588,92.735207 203.759262,93.050240 
	C206.071945,93.070633 208.456543,92.814880 210.678207,94.787880 
	C211.102722,95.188141 211.246124,95.328377 211.184052,95.688370 
	C210.978577,95.908142 210.960770,95.938347 210.969894,95.953316 
	C210.585770,110.504471 211.017990,125.040237 211.003677,139.576263 
	C210.987503,156.009399 211.006790,172.442581 210.991821,188.875732 
	C210.989868,191.026337 211.191269,193.197388 210.763474,195.761780 
	C207.774597,199.897537 204.489059,197.209534 202.980011,195.143692 
	C199.113007,189.849823 193.654221,186.332550 189.205536,181.277603 
	C188.863403,180.374435 189.048157,179.876617 189.975220,179.346649 
	C193.348724,178.990616 195.260147,180.999405 197.286575,182.652924 
	C199.217651,184.228638 200.854675,186.139603 202.675125,187.845566 
	C203.493896,188.612823 204.261215,189.929779 205.532898,189.483994 
	C207.152908,188.916138 206.482895,187.235474 206.659027,185.997940 
	C206.728714,185.508255 206.676392,185.001266 206.676376,184.502136 
	C206.675568,158.215332 206.694077,131.928528 206.665680,105.641747 
	C206.657303,97.889412 206.129486,97.344353 198.507431,97.336411 
	C167.894989,97.304497 137.282486,97.325233 106.670013,97.323486 
	C106.337273,97.323471 105.999969,97.289429 105.672569,97.331833 
	C104.248734,97.516212 102.234726,96.716743 101.600098,98.328949 
	C100.952301,99.974602 102.857887,100.808495 103.969231,101.715820 
	C105.919518,103.308075 107.991852,104.778419 107.333405,108.421486 
z"/>
<path fill="#BE4D51" opacity="1.000000" stroke="none" 
	d="
M188.374451,115.752121 
	C165.030014,115.925735 142.113403,115.841202 119.198967,116.027130 
	C114.415787,116.065948 111.117508,113.982689 108.395348,110.067474 
	C113.923485,109.304443 119.027603,110.836365 124.374802,110.761185 
	C142.869583,110.501144 161.370544,110.626808 179.868942,110.689636 
	C182.673157,110.699158 185.554459,110.352524 188.573761,111.976532 
	C189.089798,112.551414 189.253281,112.816185 189.508087,113.535965 
	C189.550461,114.631821 189.285736,115.165230 188.374451,115.752121 
z"/>
<path fill="#B32C34" opacity="1.000000" stroke="none" 
	d="
M187.933914,222.967651 
	C190.517822,223.751694 189.668701,226.178421 189.672668,228.204590 
	C189.724060,254.477554 189.712585,280.750641 189.622925,307.403351 
	C187.311249,306.228119 188.048309,303.877808 188.043121,301.814880 
	C187.977509,275.703217 187.968719,249.591446 187.933914,222.967651 
z"/>
<path fill="#B32D34" opacity="1.000000" stroke="none" 
	d="
M187.964264,116.391235 
	C188.097992,115.679802 188.283630,115.475967 188.677246,115.189758 
	C189.848190,115.358986 190.690659,115.873131 191.548141,117.157501 
	C192.866348,124.375839 192.263748,131.199814 192.321442,137.999542 
	C192.417313,149.297058 192.426193,160.596771 192.292664,171.894241 
	C192.262085,174.480911 192.766922,177.287552 190.184525,179.720734 
	C189.524597,180.151199 189.329865,180.352234 189.108337,180.808075 
	C187.591690,179.084351 188.027390,176.855804 188.023773,174.728378 
	C187.990906,155.441727 187.991714,136.154999 187.964264,116.391235 
z"/>
<path fill="#AD282D" opacity="1.000000" stroke="none" 
	d="
M210.977142,195.895386 
	C210.094315,194.866653 210.199692,193.350357 210.199615,191.860428 
	C210.198166,161.117004 210.198730,130.373566 210.219513,99.630150 
	C210.220169,98.645279 210.438568,97.660561 210.767242,96.322021 
	C210.990616,96.427483 211.002197,96.886681 211.024048,97.690079 
	C212.040878,102.704475 211.294510,107.425117 211.236084,112.546700 
	C211.029922,115.359932 211.027313,117.746559 211.034042,120.580322 
	C211.626541,121.925713 211.495773,122.941223 211.494537,123.925690 
	C211.464920,147.296722 211.574188,170.667862 211.246262,194.491577 
	C211.033600,195.155731 211.018311,195.367126 210.977142,195.895386 
z"/>
<path fill="#AD282D" opacity="1.000000" stroke="none" 
	d="
M209.910980,296.515289 
	C209.597366,269.879242 209.565521,242.984787 209.598892,215.644684 
	C210.063751,215.620865 210.463394,216.042679 210.953339,216.749878 
	C212.037552,227.711670 211.294098,238.409454 211.228607,249.535950 
	C211.015137,250.737030 211.011414,251.498489 211.015839,252.640594 
	C212.076355,264.697845 211.269730,276.396576 211.239197,288.528412 
	C210.724747,291.397430 211.641678,293.964355 209.910980,296.515289 
z"/>
<path fill="#CA3D41" opacity="1.000000" stroke="none" 
	d="
M211.263550,194.599472 
	C211.039734,170.615448 211.030548,146.286575 211.032379,121.492569 
	C212.009583,122.319023 211.997192,123.827477 211.997086,125.333015 
	C211.995392,147.331116 212.000168,169.329224 211.970062,191.327271 
	C211.968735,192.303268 211.649399,193.278839 211.263550,194.599472 
z"/>
<path fill="#CA3C40" opacity="1.000000" stroke="none" 
	d="
M211.253540,288.625305 
	C211.028061,277.299835 211.018555,265.626556 211.016510,253.487244 
	C212.548050,255.259262 212.024307,257.808990 211.966492,260.222961 
	C211.742477,269.573730 212.651642,278.945343 211.253540,288.625305 
z"/>
<path fill="#CA3C40" opacity="1.000000" stroke="none" 
	d="
M211.237335,249.628326 
	C211.019516,239.304977 211.020172,228.634384 211.032227,217.499527 
	C212.907242,220.614899 211.955048,224.467178 211.926056,228.170914 
	C211.870956,235.206253 212.636017,242.270218 211.237335,249.628326 
z"/>
<path fill="#BB2E32" opacity="1.000000" stroke="none" 
	d="
M82.533203,111.626129 
	C82.728531,115.967400 82.784966,120.030159 82.769531,124.554909 
	C79.312935,119.940521 81.485245,114.378021 81.313477,109.021492 
	C81.311600,108.963051 81.616600,108.822815 81.638138,108.846771 
	C81.846390,109.078514 82.024590,109.337265 82.289886,109.870270 
	C82.368393,110.152229 82.371254,110.149506 82.349426,110.179619 
	C82.125374,110.602188 82.136749,110.982117 82.533203,111.626129 
z"/>
<path fill="#B42D31" opacity="1.000000" stroke="none" 
	d="
M222.055664,227.646011 
	C222.424591,234.587341 222.488892,241.764389 222.462463,249.387695 
	C219.778687,246.838974 221.135086,243.245789 221.099319,239.957993 
	C221.055664,235.944412 220.179214,231.825348 222.055664,227.646011 
z"/>
<path fill="#B12F34" opacity="1.000000" stroke="none" 
	d="
M221.998383,95.405075 
	C222.363403,100.939911 222.460968,106.429070 222.451950,112.355606 
	C219.949478,107.059013 220.744568,101.212570 221.998383,95.405075 
z"/>
<path fill="#CA3D41" opacity="1.000000" stroke="none" 
	d="
M211.247284,112.627449 
	C211.026810,108.301537 211.021103,103.629784 211.024841,98.496155 
	C212.720184,102.737053 212.160416,107.507248 211.247284,112.627449 
z"/>
<path fill="#BE4D51" opacity="1.000000" stroke="none" 
	d="
M108.064011,109.919205 
	C107.676750,109.882011 107.437790,109.682289 107.060013,109.286964 
	C106.900787,109.115784 107.126884,108.887794 107.241219,108.775093 
	C107.574539,108.754128 107.793533,108.845863 108.229095,109.220314 
	C108.445679,109.503029 108.191910,109.781097 108.064011,109.919205 
z"/>
<path fill="#CA3D41" opacity="1.000000" stroke="none" 
	d="
M211.076294,95.817001 
	C210.978577,95.908142 210.959579,95.477776 210.959442,95.262833 
	C211.219757,95.225189 211.291306,95.451180 211.076294,95.817001 
z"/>
<path fill="#CD3538" opacity="1.000000" stroke="none" 
	d="
M82.748581,111.604340 
	C82.551987,111.536819 82.431885,111.168983 82.319687,110.505447 
	C82.493416,110.574501 82.659241,110.939270 82.748581,111.604340 
z"/>
<path fill="#FFFCFC" opacity="1.000000" stroke="none" 
	d="
M108.769028,109.678467 
	C108.333702,109.181404 108.125214,108.944824 107.587891,108.727837 
	C102.807144,104.414253 98.258736,100.166107 93.572472,95.789207 
	C95.647713,94.178635 97.536011,94.759560 99.264862,94.757217 
	C134.087418,94.710175 168.910355,94.784050 203.732224,94.619736 
	C207.948318,94.599846 209.467468,95.455383 209.435333,100.051071 
	C209.222122,130.540192 209.332123,161.031540 209.293732,191.522095 
	C209.291748,193.102036 209.771500,194.804214 208.385513,196.784897 
	C202.311661,191.247635 196.343643,185.806854 190.079941,180.189560 
	C189.764847,159.349701 189.745407,138.686356 189.690109,117.562225 
	C189.455521,116.257874 189.545013,115.387466 189.182800,114.314468 
	C165.863724,114.013283 142.776978,113.832031 119.691727,113.949249 
	C115.399147,113.971039 111.904305,113.097359 108.769028,109.678467 
z"/>
<path fill="#CF7C7E" opacity="1.000000" stroke="none" 
	d="
M188.932968,114.338608 
	C190.177475,114.496040 189.975677,115.508675 189.802917,116.773590 
	C189.425766,116.609573 189.197296,116.117691 188.910248,115.351326 
	C188.851700,115.076843 188.915970,114.585693 188.932968,114.338608 
z"/>
</svg>